<svg width="133" height="24" viewBox="0 0 133 24" fill="none" xmlns="http://www.w3.org/2000/svg">
<path fill-rule="evenodd" clip-rule="evenodd" d="M133 19.0039V23.224H115.657V0.49962H132.585V4.71971H120.809V9.65478H131.208V13.7452H120.809V19.0039H133ZM96.1471 0.49962H101.281V18.9385H112.405V23.224H96.1471V0.49962ZM82.0465 12.6932C83.6421 12.6932 84.855 12.3341 85.6864 11.6157C86.5167 10.8974 86.933 9.87649 86.933 8.55404C86.933 7.20721 86.5167 6.1763 85.6864 5.45687C84.855 4.73856 83.6421 4.37941 82.0465 4.37941H77.7193V12.6932H82.0465ZM82.5802 0.49962C84.5736 0.49962 86.3036 0.835497 87.7713 1.50614C89.24 2.17679 90.3695 3.129 91.163 4.36277C91.9553 5.59653 92.3531 7.05755 92.3531 8.7458C92.3531 10.4119 91.9553 11.8674 91.163 13.1122C90.3695 14.356 89.24 15.3093 87.7713 15.9688C86.3036 16.6284 84.5736 16.9587 82.5802 16.9587H78.0482V23.224H72.8419V0.49962H82.5802ZM63.6282 8.53631C63.6282 7.19612 63.212 6.16854 62.3816 5.45244C61.5503 4.73745 60.3373 4.37941 58.7417 4.37941H54.4146V12.6932H58.7417C60.3373 12.6932 61.5503 12.3296 62.3816 11.6035C63.212 10.8764 63.6282 9.85432 63.6282 8.53631ZM63.0298 23.224L58.7807 16.8944H54.0926V23.224H48.9947V0.49962H58.5292C60.4803 0.49962 62.1745 0.835497 63.6119 1.50614C65.0492 2.17679 66.1559 3.129 66.932 4.36277C67.7081 5.59653 68.0962 7.05755 68.0962 8.7458C68.0962 10.4341 67.7027 11.8895 66.9157 13.1122C66.1288 14.3349 65.0123 15.2705 63.5642 15.9201L68.5059 23.224H63.0298ZM34.0892 23.7783C30.9263 23.7783 28.4646 22.8737 26.7043 21.0646C24.9439 19.2556 24.0627 16.6727 24.0627 13.3162V0.49962H29.1876V13.12C29.1876 17.2181 30.832 19.2666 34.1207 19.2666C35.7238 19.2666 36.9465 18.7711 37.7898 17.779C38.6332 16.7869 39.0559 15.2339 39.0559 13.12V0.49962H44.1169V13.3162C44.1169 16.6727 43.2356 19.2556 41.4753 21.0646C39.7139 22.8737 37.2522 23.7783 34.0892 23.7783ZM10.5062 12.6932C12.1018 12.6932 13.3147 12.3341 14.1461 11.6157C14.9764 10.8974 15.3916 9.87649 15.3916 8.55404C15.3916 7.20721 14.9764 6.1763 14.1461 5.45687C13.3147 4.73856 12.1018 4.37941 10.5062 4.37941H6.17795V12.6932H10.5062ZM10.4973 0.499573C12.4906 0.499573 14.2206 0.83545 15.6883 1.5061C17.1571 2.17674 18.2865 3.12895 19.08 4.36272C19.8724 5.59649 20.2691 7.0575 20.2691 8.74576C20.2691 10.4118 19.8724 11.8673 19.08 13.1122C18.2865 14.3559 17.1571 15.3092 15.6883 15.9688C14.2206 16.6283 12.4906 16.9587 10.4973 16.9587H5.96525V23.224H0.757935V0.499573H10.4973Z" fill="#734EE1"/>
</svg>
